<svg width="40" height="40" viewBox="0 0 40 40" fill="none" xmlns="http://www.w3.org/2000/svg">
<path d="M16.508 6.31952C9.57051 6.34217 4.3916 8.5703 1.47598 11.3281L2.4416 12.3437C7.29941 7.76248 20.1877 4.24998 37.9377 13.8125L38.6096 12.5781C30.1096 7.99998 22.6252 6.2992 16.508 6.31952ZM8.9377 12.9453C4.56426 14.6562 2.59707 18.0703 1.3877 20.3203L2.62676 20.9922C3.81738 18.7656 5.52754 15.789 9.45332 14.2578C13.3752 12.7265 19.6486 12.625 30.008 16.6562L30.5236 15.3437C23.3596 12.7969 15.9143 10.2812 8.9377 12.9453ZM29.2814 18.8828C15.4143 26.0312 8.96895 23.9765 1.74551 22.1172L1.39551 23.4844C2.64238 23.8047 3.89082 24.1328 5.17598 24.414C3.66348 25.4765 2.92441 25.7578 2.03613 26.3359C4.04004 26.25 5.33144 25.6172 6.70098 25.039C5.71816 26.25 4.86113 27.4609 3.10723 28.7422C5.21816 28.1797 7.25098 27.5547 8.78145 26.4922C7.80723 28.0547 6.61582 29.5781 5.27441 31.0703C7.57363 30.3515 9.3127 28.6172 11.1174 26.8984C11.0939 28.3906 10.3986 29.8828 9.90645 31.375C11.5471 29.8672 12.2502 28.7812 13.2424 27.2734C13.1486 29.5547 13.7893 31.3984 14.3518 33.6797C14.7033 31.5 15.0939 29.3125 15.0939 27.2031C16.2658 29.1562 17.8361 30.9375 19.8127 32.5234C18.758 30.6875 17.7033 28.8594 17.1486 26.9531C19.1643 28.8672 21.2658 30.7265 23.7893 32.2812C22.1096 30.4453 20.5158 28.5859 19.4846 26.6015C21.2971 28.3047 23.1174 30.0078 26.1486 30.9922C23.9533 29.4844 22.5471 27.7734 21.5158 25.9687C23.6018 27.7187 25.9377 29.2734 28.758 30.4375C26.2658 28.7187 24.8596 27 23.8986 25.2812C25.9611 26.9844 28.3205 28.1094 30.3752 29.2344C28.7502 27.7344 26.9768 26.2969 26.1252 24.5156C27.8049 25.9765 29.7893 26.6094 31.7502 27.289C29.9299 26.0781 28.883 25.2578 27.7971 23.8281C29.5314 24.7031 30.9768 25.0469 33.0627 25.5625C31.7033 24.8047 30.258 23.7656 29.3283 22.8672C31.4143 23.3906 33.7033 23.4765 35.8596 23.4453C33.883 22.9297 31.7346 22.4765 30.5939 21.6875C35.1564 21.7265 35.4377 21.3281 37.3518 20.375C33.3049 20.6719 30.7346 20.6015 29.2814 18.8828Z" fill="white"/>
</svg>
