<svg width="41" height="42" viewBox="0 0 41 42" fill="none" xmlns="http://www.w3.org/2000/svg">
<path d="M21.8124 14.2474L21.7385 27.8139C21.7311 29.1639 23.2435 29.9555 24.3643 29.1949L34.0178 22.4641C34.9548 21.8025 34.9624 20.4025 34.0326 19.7474L24.4531 12.9118C23.3407 12.1224 21.8198 12.8975 21.8124 14.2474ZM19.0163 19.649L9.43671 12.8133C8.341 12.024 6.80333 12.8156 6.79597 14.1656L6.72204 27.7321C6.71468 29.0821 8.22706 29.8736 9.34789 29.1131L19.0014 22.3822C19.2223 22.2298 19.4031 22.0264 19.5285 21.7891C19.6538 21.5519 19.7201 21.2878 19.7215 21.0195C19.723 20.7511 19.6596 20.4864 19.5369 20.2478C19.4141 20.0092 19.2355 19.8037 19.0163 19.649Z" fill="white"/>
</svg>
