<svg width="40" height="40" viewBox="0 0 40 40" fill="none" xmlns="http://www.w3.org/2000/svg">
<path d="M9.37492 27.4975H20.6249C21.1 27.4976 21.5573 27.6781 21.9044 28.0024C22.2515 28.3268 22.4626 28.7707 22.495 29.2447C22.5274 29.7187 22.3786 30.1872 22.0788 30.5557C21.779 30.9243 21.3505 31.1652 20.8799 31.23L20.6249 31.2475H9.37492C8.89986 31.2474 8.44256 31.0669 8.09544 30.7426C7.74831 30.4182 7.53723 29.9743 7.50485 29.5003C7.47247 29.0263 7.6212 28.5578 7.921 28.1893C8.22079 27.8207 8.64929 27.5798 9.11992 27.515L9.37492 27.4975ZM13.0499 13.0475C13.3677 12.7303 13.7887 12.5377 14.2365 12.5047C14.6843 12.4717 15.129 12.6004 15.4899 12.8675L15.6999 13.05L24.4499 21.8C24.7823 22.135 24.9762 22.583 24.9928 23.0546C25.0094 23.5263 24.8475 23.9868 24.5395 24.3444C24.2315 24.7019 23.8 24.9302 23.3311 24.9836C22.8622 25.037 22.3904 24.9116 22.0099 24.6325L21.7999 24.45L13.0499 15.7C12.6988 15.3484 12.5016 14.8719 12.5016 14.375C12.5016 13.8781 12.6988 13.3991 13.0499 13.0475ZM29.3749 7.5C29.828 7.50002 30.2658 7.66411 30.6072 7.96192C30.9487 8.25973 31.1708 8.67112 31.2324 9.12L31.2499 9.375V20.625C31.2498 21.1001 31.0693 21.5574 30.745 21.9045C30.4207 22.2516 29.9767 22.4627 29.5027 22.4951C29.0288 22.5274 28.5602 22.3787 28.1917 22.0789C27.8232 21.7791 27.5822 21.3506 27.5174 20.88L27.4999 20.625V9.375C27.4999 8.87772 27.6975 8.40081 28.0491 8.04917C28.4007 7.69754 28.8776 7.5 29.3749 7.5Z" fill="white"/>
</svg>
