<svg width="270" height="230" viewBox="0 0 270 230" fill="none" xmlns="http://www.w3.org/2000/svg">
<path opacity="0.3" d="M174 70C174 92.0914 156.091 110 134 110C111.909 110 94 92.0914 94 70C94 47.9086 111.909 30 134 30C156.091 30 174 47.9086 174 70ZM104.907 70C104.907 86.0675 117.932 99.0929 134 99.0929C150.068 99.0929 163.093 86.0675 163.093 70C163.093 53.9325 150.068 40.9071 134 40.9071C117.932 40.9071 104.907 53.9325 104.907 70Z" fill="#FDFDFD"/>
<circle cx="134" cy="70" r="29" fill="#EB5D76"/>
<path d="M65.5227 137.727H71.5909L78 153.364H78.2727L84.6818 137.727H90.75V161H85.9773V145.852H85.7841L79.7614 160.886H76.5114L70.4886 145.795H70.2955V161H65.5227V137.727ZM100.97 161.33C99.8567 161.33 98.8643 161.136 97.9931 160.75C97.1219 160.356 96.4325 159.777 95.9249 159.011C95.4249 158.239 95.1749 157.277 95.1749 156.125C95.1749 155.155 95.3529 154.341 95.709 153.682C96.065 153.023 96.5499 152.492 97.1635 152.091C97.7772 151.689 98.4741 151.386 99.2544 151.182C100.042 150.977 100.868 150.833 101.732 150.75C102.747 150.644 103.565 150.545 104.186 150.455C104.807 150.356 105.258 150.212 105.539 150.023C105.819 149.833 105.959 149.553 105.959 149.182V149.114C105.959 148.394 105.732 147.837 105.277 147.443C104.83 147.049 104.194 146.852 103.368 146.852C102.497 146.852 101.804 147.045 101.289 147.432C100.773 147.811 100.432 148.288 100.266 148.864L95.7885 148.5C96.0158 147.439 96.4628 146.523 97.1294 145.75C97.7961 144.97 98.6559 144.371 99.709 143.955C100.77 143.53 101.997 143.318 103.391 143.318C104.36 143.318 105.289 143.432 106.175 143.659C107.069 143.886 107.86 144.239 108.55 144.716C109.247 145.193 109.796 145.807 110.198 146.557C110.599 147.299 110.8 148.189 110.8 149.227V161H106.209V158.58H106.073C105.792 159.125 105.417 159.606 104.948 160.023C104.478 160.432 103.914 160.754 103.254 160.989C102.595 161.216 101.834 161.33 100.97 161.33ZM102.357 157.989C103.069 157.989 103.698 157.848 104.243 157.568C104.789 157.28 105.217 156.894 105.527 156.409C105.838 155.924 105.993 155.375 105.993 154.761V152.909C105.842 153.008 105.633 153.098 105.368 153.182C105.11 153.258 104.819 153.33 104.493 153.398C104.167 153.458 103.842 153.515 103.516 153.568C103.19 153.614 102.895 153.655 102.629 153.693C102.061 153.777 101.565 153.909 101.141 154.091C100.717 154.273 100.387 154.519 100.152 154.83C99.9173 155.133 99.7999 155.511 99.7999 155.966C99.7999 156.625 100.039 157.129 100.516 157.477C101.001 157.818 101.614 157.989 102.357 157.989ZM120.222 155.977L120.233 150.17H120.938L126.529 143.545H132.086L124.574 152.318H123.426L120.222 155.977ZM115.836 161V137.727H120.676V161H115.836ZM126.745 161L121.608 153.398L124.836 149.977L132.415 161H126.745ZM142.976 161.341C141.181 161.341 139.635 160.977 138.34 160.25C137.052 159.515 136.06 158.477 135.363 157.136C134.666 155.788 134.317 154.193 134.317 152.352C134.317 150.557 134.666 148.981 135.363 147.625C136.06 146.269 137.041 145.212 138.306 144.455C139.579 143.697 141.071 143.318 142.783 143.318C143.935 143.318 145.007 143.504 145.999 143.875C146.999 144.239 147.87 144.788 148.613 145.523C149.363 146.258 149.946 147.182 150.363 148.295C150.779 149.402 150.988 150.697 150.988 152.182V153.511H136.249V150.511H146.431C146.431 149.814 146.279 149.197 145.976 148.659C145.673 148.121 145.253 147.701 144.715 147.398C144.185 147.087 143.567 146.932 142.863 146.932C142.128 146.932 141.476 147.102 140.908 147.443C140.348 147.777 139.908 148.227 139.59 148.795C139.272 149.356 139.109 149.981 139.101 150.67V153.523C139.101 154.386 139.26 155.133 139.579 155.761C139.904 156.39 140.363 156.875 140.954 157.216C141.545 157.557 142.245 157.727 143.056 157.727C143.594 157.727 144.086 157.652 144.533 157.5C144.98 157.348 145.363 157.121 145.681 156.818C145.999 156.515 146.242 156.144 146.408 155.705L150.885 156C150.658 157.076 150.192 158.015 149.488 158.818C148.791 159.614 147.889 160.235 146.783 160.682C145.685 161.121 144.416 161.341 142.976 161.341ZM175.306 153.568V143.545H180.147V161H175.499V157.83H175.318C174.924 158.852 174.268 159.674 173.352 160.295C172.443 160.917 171.333 161.227 170.022 161.227C168.855 161.227 167.829 160.962 166.943 160.432C166.056 159.902 165.363 159.148 164.863 158.17C164.371 157.193 164.121 156.023 164.113 154.659V143.545H168.954V153.795C168.962 154.826 169.238 155.64 169.784 156.239C170.329 156.837 171.06 157.136 171.977 157.136C172.56 157.136 173.105 157.004 173.613 156.739C174.121 156.466 174.53 156.064 174.84 155.534C175.159 155.004 175.314 154.348 175.306 153.568ZM185.299 167.545V143.545H190.072V146.477H190.288C190.5 146.008 190.807 145.53 191.208 145.045C191.618 144.553 192.148 144.144 192.799 143.818C193.458 143.485 194.277 143.318 195.254 143.318C196.527 143.318 197.701 143.652 198.777 144.318C199.852 144.977 200.712 145.973 201.356 147.307C202 148.633 202.322 150.295 202.322 152.295C202.322 154.242 202.008 155.886 201.379 157.227C200.758 158.561 199.909 159.572 198.833 160.261C197.765 160.943 196.568 161.284 195.243 161.284C194.303 161.284 193.504 161.129 192.845 160.818C192.193 160.508 191.659 160.117 191.243 159.648C190.826 159.17 190.508 158.689 190.288 158.205H190.14V167.545H185.299ZM190.038 152.273C190.038 153.311 190.182 154.216 190.47 154.989C190.758 155.761 191.174 156.364 191.72 156.795C192.265 157.22 192.928 157.432 193.708 157.432C194.496 157.432 195.163 157.216 195.708 156.784C196.254 156.345 196.667 155.739 196.947 154.966C197.235 154.186 197.379 153.288 197.379 152.273C197.379 151.265 197.239 150.379 196.958 149.614C196.678 148.848 196.265 148.25 195.72 147.818C195.174 147.386 194.504 147.17 193.708 147.17C192.921 147.17 192.254 147.379 191.708 147.795C191.171 148.212 190.758 148.803 190.47 149.568C190.182 150.333 190.038 151.235 190.038 152.273Z" fill="black"/>
<path d="M35.312 187.52V188.752H28.928V187.52H35.312ZM44.1245 187.52V188.752H37.7405V187.52H44.1245ZM52.937 187.52V188.752H46.553V187.52H52.937ZM61.7495 187.52V188.752H55.3655V187.52H61.7495ZM70.562 187.52V188.752H64.178V187.52H70.562ZM79.3745 187.52V188.752H72.9905V187.52H79.3745ZM88.187 187.52V188.752H81.803V187.52H88.187ZM96.9995 187.52V188.752H90.6155V187.52H96.9995ZM105.812 187.52V188.752H99.428V187.52H105.812ZM114.625 187.52V188.752H108.241V187.52H114.625ZM123.437 187.52V188.752H117.053V187.52H123.437ZM132.25 187.52V188.752H125.866V187.52H132.25ZM141.062 187.52V188.752H134.678V187.52H141.062ZM149.875 187.52V188.752H143.491V187.52H149.875ZM158.687 187.52V188.752H152.303V187.52H158.687ZM167.5 187.52V188.752H161.116V187.52H167.5ZM176.312 187.52V188.752H169.928V187.52H176.312ZM185.125 187.52V188.752H178.741V187.52H185.125ZM193.937 187.52V188.752H187.553V187.52H193.937ZM202.75 187.52V188.752H196.366V187.52H202.75ZM211.562 187.52V188.752H205.178V187.52H211.562ZM220.375 187.52V188.752H213.991V187.52H220.375ZM229.187 187.52V188.752H222.803V187.52H229.187ZM238 187.52V188.752H231.616V187.52H238Z" fill="black"/>
<path d="M129 60.9999H137.333M129 60.9999V65.1666H137.333V60.9999M129 60.9999V58.4999C129 55.9999 131.5 54.3333 134 54.3333H143.167C143.167 54.3333 137.333 55.9999 137.333 59.3333V60.9999M124.833 66.8333C124.833 66.3912 125.009 65.9673 125.322 65.6547C125.634 65.3422 126.058 65.1666 126.5 65.1666H139.833C140.276 65.1666 140.699 65.3422 141.012 65.6547C141.325 65.9673 141.5 66.3912 141.5 66.8333V82.6666C141.5 82.6666 141.5 87.6666 136.5 87.6666H129.833C124.833 87.6666 124.833 82.6666 124.833 82.6666V66.8333Z" stroke="white" stroke-width="4" stroke-linecap="round" stroke-linejoin="round"/>
</svg>
