<svg width="294" height="254" viewBox="0 0 294 254" fill="none" xmlns="http://www.w3.org/2000/svg">
<g filter="url(#filter0_d_106_1380)">
<rect x="12" y="10" width="270" height="230" rx="4" fill="#F19393"/>
<path opacity="0.3" d="M188.5 82C188.5 104.091 170.591 122 148.5 122C126.409 122 108.5 104.091 108.5 82C108.5 59.9086 126.409 42 148.5 42C170.591 42 188.5 59.9086 188.5 82ZM119.407 82C119.407 98.0675 132.432 111.093 148.5 111.093C164.568 111.093 177.593 98.0675 177.593 82C177.593 65.9325 164.568 52.9071 148.5 52.9071C132.432 52.9071 119.407 65.9325 119.407 82Z" fill="#F8B3BF"/>
<circle cx="148.5" cy="82" r="29" fill="#EB5D76"/>
<path d="M110.636 149.727L115.33 157.659H115.511L120.227 149.727H125.784L118.682 161.364L125.943 173H120.284L115.511 165.057H115.33L110.557 173H104.92L112.205 161.364L105.057 149.727H110.636ZM133.075 179.545C132.462 179.545 131.886 179.496 131.348 179.398C130.818 179.307 130.378 179.189 130.03 179.045L131.121 175.432C131.689 175.606 132.2 175.701 132.655 175.716C133.117 175.731 133.515 175.625 133.848 175.398C134.189 175.17 134.466 174.784 134.678 174.239L134.962 173.5L128.7 155.545H133.791L137.405 168.364H137.587L141.235 155.545H146.36L139.575 174.886C139.25 175.826 138.807 176.644 138.246 177.341C137.693 178.045 136.992 178.587 136.144 178.966C135.295 179.352 134.272 179.545 133.075 179.545ZM160.435 167.648L165.162 155.545H168.844L162.037 173H158.821L152.174 155.545H155.844L160.435 167.648ZM154.742 155.545V173H150.117V155.545H154.742ZM166.367 173V155.545H170.935V173H166.367ZM183.846 173.341C182.058 173.341 180.52 172.962 179.232 172.205C177.952 171.439 176.967 170.379 176.277 169.023C175.596 167.667 175.255 166.106 175.255 164.341C175.255 162.553 175.599 160.985 176.289 159.636C176.986 158.28 177.974 157.223 179.255 156.466C180.535 155.701 182.058 155.318 183.823 155.318C185.346 155.318 186.679 155.595 187.823 156.148C188.967 156.701 189.872 157.477 190.539 158.477C191.206 159.477 191.573 160.652 191.641 162H187.073C186.944 161.129 186.603 160.428 186.05 159.898C185.505 159.36 184.789 159.091 183.902 159.091C183.152 159.091 182.497 159.295 181.937 159.705C181.384 160.106 180.952 160.693 180.641 161.466C180.331 162.239 180.175 163.174 180.175 164.273C180.175 165.386 180.327 166.333 180.63 167.114C180.94 167.894 181.376 168.489 181.937 168.898C182.497 169.307 183.152 169.511 183.902 169.511C184.456 169.511 184.952 169.398 185.391 169.17C185.838 168.943 186.206 168.614 186.493 168.182C186.789 167.742 186.982 167.216 187.073 166.602H191.641C191.565 167.936 191.202 169.11 190.55 170.125C189.906 171.133 189.016 171.92 187.88 172.489C186.743 173.057 185.399 173.341 183.846 173.341Z" fill="white"/>
<path d="M54.312 195.52V196.752H47.928V195.52H54.312ZM63.1245 195.52V196.752H56.7405V195.52H63.1245ZM71.937 195.52V196.752H65.553V195.52H71.937ZM80.7495 195.52V196.752H74.3655V195.52H80.7495ZM89.562 195.52V196.752H83.178V195.52H89.562ZM98.3745 195.52V196.752H91.9905V195.52H98.3745ZM107.187 195.52V196.752H100.803V195.52H107.187ZM116 195.52V196.752H109.616V195.52H116ZM124.812 195.52V196.752H118.428V195.52H124.812ZM133.625 195.52V196.752H127.241V195.52H133.625ZM142.437 195.52V196.752H136.053V195.52H142.437ZM151.25 195.52V196.752H144.866V195.52H151.25ZM160.062 195.52V196.752H153.678V195.52H160.062ZM168.875 195.52V196.752H162.491V195.52H168.875ZM177.687 195.52V196.752H171.303V195.52H177.687ZM186.5 195.52V196.752H180.116V195.52H186.5ZM195.312 195.52V196.752H188.928V195.52H195.312ZM204.125 195.52V196.752H197.741V195.52H204.125ZM212.937 195.52V196.752H206.553V195.52H212.937ZM221.75 195.52V196.752H215.366V195.52H221.75ZM230.562 195.52V196.752H224.178V195.52H230.562ZM239.375 195.52V196.752H232.991V195.52H239.375ZM248.187 195.52V196.752H241.803V195.52H248.187Z" fill="white"/>
<path d="M166.042 60.25H161.052C160.9 60.25 160.753 60.3057 160.639 60.4065C160.525 60.5073 160.451 60.6464 160.432 60.7975L159.964 64.5475C159.953 64.6353 159.961 64.7245 159.987 64.809C160.013 64.8936 160.056 64.9717 160.115 65.0381C160.173 65.1045 160.245 65.1577 160.326 65.1943C160.407 65.2308 160.494 65.2498 160.583 65.25H162.25L161.566 69.0075C161.367 69.0151 161.169 69.0509 160.98 69.1137C160.813 69.1682 160.654 69.2443 160.506 69.34C160.482 69.3563 160.462 69.3737 160.44 69.3912C160.311 69.4837 160.195 69.5916 160.092 69.7125C160.076 69.7312 160.059 69.7475 160.043 69.7675C159.94 69.9018 159.857 70.0505 159.798 70.2087C159.794 70.2238 159.781 70.235 159.776 70.25H159.785C159.716 70.4314 159.68 70.6235 159.677 70.8175L159.679 70.875V72.6337C159.679 72.9487 159.5 73.2638 159.33 73.4938C159.197 73.6737 159.25 73.94 159.47 73.9738C160.964 74.1975 163.631 72.9987 163.631 70.8188C163.631 70.6187 163.588 70.4313 163.524 70.2513H163.533C163.528 70.2363 163.515 70.225 163.509 70.21C163.449 70.052 163.366 69.9034 163.264 69.7687C163.249 69.7487 163.23 69.7325 163.215 69.7137C163.113 69.5925 162.995 69.4846 162.866 69.3925C162.844 69.3763 162.824 69.3575 162.8 69.3425L162.78 69.3275L163.521 65.25H165.021C165.326 65.2499 165.62 65.1386 165.848 64.937C166.077 64.7353 166.223 64.4573 166.261 64.155L166.661 60.9525C166.672 60.8647 166.664 60.7755 166.638 60.691C166.612 60.6064 166.569 60.5283 166.51 60.4619C166.452 60.3955 166.38 60.3423 166.299 60.3057C166.218 60.2692 166.131 60.2502 166.042 60.25ZM162.83 61.6138L162.205 64.1137C162.175 64.2344 162.098 64.3382 161.991 64.4022C161.885 64.4662 161.757 64.4852 161.636 64.455C161.516 64.4248 161.412 64.348 161.348 64.2413C161.284 64.1346 161.265 64.0069 161.295 63.8863L161.92 61.3863C161.95 61.2656 162.027 61.1618 162.134 61.0978C162.24 61.0338 162.368 61.0148 162.489 61.045C162.609 61.0752 162.713 61.152 162.777 61.2587C162.841 61.3654 162.86 61.4931 162.83 61.6138ZM162.417 79.3575C162.417 78.3187 162.02 77.2775 161.228 76.485C160.934 76.1925 160.537 76.0282 160.122 76.0282C159.708 76.0282 159.311 76.1925 159.017 76.485L158.758 76.745C158.542 75.8803 158.098 75.0896 157.471 74.4562C157.358 74.3425 157.226 74.2575 157.104 74.1562C157.105 74.1225 157.114 74.0887 157.114 74.0538C157.114 73.015 156.716 71.9738 155.925 71.1812C155.632 70.8887 155.234 70.7245 154.82 70.7245C154.406 70.7245 154.008 70.8887 153.715 71.1812L151.686 73.2087C151.516 72.5536 151.214 71.9402 150.798 71.4062C151.445 70.6724 151.805 69.7288 151.811 68.75C151.811 67.7113 151.414 66.67 150.621 65.8775C150.328 65.585 149.931 65.4207 149.516 65.4207C149.102 65.4207 148.705 65.585 148.411 65.8775L143.992 70.2975L130.5 83.7487V95.875C130.5 96.0408 130.566 96.1997 130.683 96.3169C130.8 96.4342 130.959 96.5 131.125 96.5H153.104L161.006 88.5975C161.471 88.1334 161.84 87.5821 162.091 86.9753C162.342 86.3685 162.472 85.7181 162.471 85.0613C162.464 83.9548 162.089 82.8823 161.405 82.0125C162.069 81.2512 162.417 80.3075 162.417 79.3575ZM133 84.7838L143.776 74.0087C143.846 74.0988 143.91 74.1912 143.992 74.2738C144.253 74.5352 144.563 74.7425 144.905 74.8839C145.246 75.0253 145.612 75.0978 145.981 75.0975C146.7 75.0975 147.421 74.8225 147.97 74.2738L149.026 73.2175C149.245 73.6 149.364 74.0225 149.365 74.4537C149.366 74.7822 149.302 75.1075 149.176 75.4109C149.05 75.7143 148.865 75.9897 148.632 76.2213L133 91.855V84.7838ZM134.39 94L149.077 79.3125C149.147 79.4025 149.211 79.495 149.294 79.5775C149.555 79.8389 149.865 80.0463 150.206 80.1876C150.547 80.329 150.913 80.4016 151.282 80.4013C152.001 80.4013 152.724 80.1262 153.271 79.5775L155.922 76.9263C155.984 76.865 156.026 76.7938 156.083 76.73C156.366 77.2048 156.482 77.7608 156.413 78.3094C156.344 78.858 156.094 79.3678 155.701 79.7575L141.461 94H134.39ZM159.239 86.83L152.069 94H144.997L154.383 84.615C154.453 84.705 154.517 84.7987 154.6 84.8813C154.861 85.1427 155.171 85.35 155.512 85.4914C155.854 85.6328 156.219 85.7053 156.589 85.705C157.308 85.705 158.029 85.43 158.577 84.8813L159.634 83.825C159.852 84.2075 159.971 84.63 159.972 85.0613C159.973 85.3899 159.908 85.7153 159.782 86.0189C159.656 86.3224 159.472 86.5981 159.239 86.83Z" fill="#7D3232"/>
</g>
<defs>
<filter id="filter0_d_106_1380" x="0" y="0" width="294" height="254" filterUnits="userSpaceOnUse" color-interpolation-filters="sRGB">
<feFlood flood-opacity="0" result="BackgroundImageFix"/>
<feColorMatrix in="SourceAlpha" type="matrix" values="0 0 0 0 0 0 0 0 0 0 0 0 0 0 0 0 0 0 127 0" result="hardAlpha"/>
<feMorphology radius="2" operator="dilate" in="SourceAlpha" result="effect1_dropShadow_106_1380"/>
<feOffset dy="2"/>
<feGaussianBlur stdDeviation="5"/>
<feComposite in2="hardAlpha" operator="out"/>
<feColorMatrix type="matrix" values="0 0 0 0 0 0 0 0 0 0 0 0 0 0 0 0 0 0 0.2 0"/>
<feBlend mode="normal" in2="BackgroundImageFix" result="effect1_dropShadow_106_1380"/>
<feBlend mode="normal" in="SourceGraphic" in2="effect1_dropShadow_106_1380" result="shape"/>
</filter>
</defs>
</svg>
