<svg width="270" height="230" viewBox="0 0 270 230" fill="none" xmlns="http://www.w3.org/2000/svg">
<path opacity="0.3" d="M175 70C175 92.0914 157.091 110 135 110C112.909 110 95 92.0914 95 70C95 47.9086 112.909 30 135 30C157.091 30 175 47.9086 175 70ZM105.907 70C105.907 86.0675 118.932 99.0929 135 99.0929C151.068 99.0929 164.093 86.0675 164.093 70C164.093 53.9325 151.068 40.9071 135 40.9071C118.932 40.9071 105.907 53.9325 105.907 70Z" fill="#FDFDFD"/>
<circle cx="135" cy="70" r="29" fill="#EB5D76"/>
<path d="M81.5568 145.875H76.5795C76.4886 145.231 76.303 144.659 76.0227 144.159C75.7424 143.652 75.3826 143.22 74.9432 142.864C74.5038 142.508 73.9962 142.235 73.4205 142.045C72.8523 141.856 72.2348 141.761 71.5682 141.761C70.3636 141.761 69.3144 142.061 68.4205 142.659C67.5265 143.25 66.8333 144.114 66.3409 145.25C65.8485 146.379 65.6023 147.75 65.6023 149.364C65.6023 151.023 65.8485 152.417 66.3409 153.545C66.8409 154.674 67.5379 155.527 68.4318 156.102C69.3258 156.678 70.3598 156.966 71.5341 156.966C72.1932 156.966 72.803 156.879 73.3636 156.705C73.9318 156.53 74.4356 156.277 74.875 155.943C75.3144 155.602 75.678 155.189 75.9659 154.705C76.2614 154.22 76.4659 153.667 76.5795 153.045L81.5568 153.068C81.428 154.136 81.1061 155.167 80.5909 156.159C80.0833 157.144 79.3977 158.027 78.5341 158.807C77.678 159.58 76.6553 160.193 75.4659 160.648C74.2841 161.095 72.947 161.318 71.4545 161.318C69.3788 161.318 67.5227 160.848 65.8864 159.909C64.2576 158.97 62.9697 157.61 62.0227 155.83C61.0833 154.049 60.6136 151.894 60.6136 149.364C60.6136 146.826 61.0909 144.667 62.0455 142.886C63 141.106 64.2955 139.75 65.9318 138.818C67.5682 137.879 69.4091 137.409 71.4545 137.409C72.803 137.409 74.053 137.598 75.2045 137.977C76.3636 138.356 77.3902 138.909 78.2841 139.636C79.178 140.356 79.9053 141.239 80.4659 142.284C81.0341 143.33 81.3977 144.527 81.5568 145.875ZM94.1607 161.341C92.3955 161.341 90.869 160.966 89.5811 160.216C88.3008 159.458 87.3122 158.405 86.6152 157.057C85.9183 155.701 85.5698 154.129 85.5698 152.341C85.5698 150.538 85.9183 148.962 86.6152 147.614C87.3122 146.258 88.3008 145.205 89.5811 144.455C90.869 143.697 92.3955 143.318 94.1607 143.318C95.9258 143.318 97.4486 143.697 98.7289 144.455C100.017 145.205 101.009 146.258 101.706 147.614C102.403 148.962 102.752 150.538 102.752 152.341C102.752 154.129 102.403 155.701 101.706 157.057C101.009 158.405 100.017 159.458 98.7289 160.216C97.4486 160.966 95.9258 161.341 94.1607 161.341ZM94.1834 157.591C94.9864 157.591 95.6569 157.364 96.1948 156.909C96.7327 156.447 97.138 155.818 97.4107 155.023C97.691 154.227 97.8311 153.322 97.8311 152.307C97.8311 151.292 97.691 150.386 97.4107 149.591C97.138 148.795 96.7327 148.167 96.1948 147.705C95.6569 147.242 94.9864 147.011 94.1834 147.011C93.3728 147.011 92.691 147.242 92.138 147.705C91.5925 148.167 91.1796 148.795 90.8993 149.591C90.6266 150.386 90.4902 151.292 90.4902 152.307C90.4902 153.322 90.6266 154.227 90.8993 155.023C91.1796 155.818 91.5925 156.447 92.138 156.909C92.691 157.364 93.3728 157.591 94.1834 157.591ZM107.179 167.545V143.545H111.952V146.477H112.168C112.38 146.008 112.687 145.53 113.088 145.045C113.498 144.553 114.028 144.144 114.679 143.818C115.338 143.485 116.157 143.318 117.134 143.318C118.407 143.318 119.581 143.652 120.657 144.318C121.732 144.977 122.592 145.973 123.236 147.307C123.88 148.633 124.202 150.295 124.202 152.295C124.202 154.242 123.888 155.886 123.259 157.227C122.638 158.561 121.789 159.572 120.713 160.261C119.645 160.943 118.448 161.284 117.123 161.284C116.183 161.284 115.384 161.129 114.725 160.818C114.073 160.508 113.539 160.117 113.123 159.648C112.706 159.17 112.388 158.689 112.168 158.205H112.02V167.545H107.179ZM111.918 152.273C111.918 153.311 112.062 154.216 112.35 154.989C112.638 155.761 113.054 156.364 113.6 156.795C114.145 157.22 114.808 157.432 115.588 157.432C116.376 157.432 117.043 157.216 117.588 156.784C118.134 156.345 118.547 155.739 118.827 154.966C119.115 154.186 119.259 153.288 119.259 152.273C119.259 151.265 119.119 150.379 118.838 149.614C118.558 148.848 118.145 148.25 117.6 147.818C117.054 147.386 116.384 147.17 115.588 147.17C114.801 147.17 114.134 147.379 113.588 147.795C113.051 148.212 112.638 148.803 112.35 149.568C112.062 150.333 111.918 151.235 111.918 152.273ZM139.027 155.648L143.755 143.545H147.437L140.63 161H137.414L130.766 143.545H134.437L139.027 155.648ZM133.334 143.545V161H128.709V143.545H133.334ZM144.959 161V143.545H149.527V161H144.959ZM156.915 167.545C156.302 167.545 155.726 167.496 155.188 167.398C154.658 167.307 154.218 167.189 153.87 167.045L154.961 163.432C155.529 163.606 156.04 163.701 156.495 163.716C156.957 163.731 157.355 163.625 157.688 163.398C158.029 163.17 158.306 162.784 158.518 162.239L158.802 161.5L152.54 143.545H157.631L161.245 156.364H161.427L165.075 143.545H170.2L163.415 162.886C163.09 163.826 162.647 164.644 162.086 165.341C161.533 166.045 160.832 166.587 159.984 166.966C159.135 167.352 158.112 167.545 156.915 167.545ZM176.945 167.545C176.332 167.545 175.756 167.496 175.218 167.398C174.688 167.307 174.248 167.189 173.9 167.045L174.991 163.432C175.559 163.606 176.07 163.701 176.525 163.716C176.987 163.731 177.385 163.625 177.718 163.398C178.059 163.17 178.336 162.784 178.548 162.239L178.832 161.5L172.57 143.545H177.661L181.275 156.364H181.457L185.105 143.545H190.23L183.445 162.886C183.12 163.826 182.677 164.644 182.116 165.341C181.563 166.045 180.862 166.587 180.014 166.966C179.165 167.352 178.142 167.545 176.945 167.545ZM201.311 161.341C199.523 161.341 197.985 160.962 196.697 160.205C195.417 159.439 194.432 158.379 193.742 157.023C193.061 155.667 192.72 154.106 192.72 152.341C192.72 150.553 193.064 148.985 193.754 147.636C194.451 146.28 195.439 145.223 196.72 144.466C198 143.701 199.523 143.318 201.288 143.318C202.811 143.318 204.144 143.595 205.288 144.148C206.432 144.701 207.337 145.477 208.004 146.477C208.671 147.477 209.038 148.652 209.106 150H204.538C204.409 149.129 204.068 148.428 203.515 147.898C202.97 147.36 202.254 147.091 201.367 147.091C200.617 147.091 199.962 147.295 199.402 147.705C198.849 148.106 198.417 148.693 198.106 149.466C197.796 150.239 197.64 151.174 197.64 152.273C197.64 153.386 197.792 154.333 198.095 155.114C198.405 155.894 198.841 156.489 199.402 156.898C199.962 157.307 200.617 157.511 201.367 157.511C201.921 157.511 202.417 157.398 202.856 157.17C203.303 156.943 203.671 156.614 203.958 156.182C204.254 155.742 204.447 155.216 204.538 154.602H209.106C209.03 155.936 208.667 157.11 208.015 158.125C207.371 159.133 206.481 159.92 205.345 160.489C204.208 161.057 202.864 161.341 201.311 161.341Z" fill="black"/>
<path d="M45.312 187.52V188.752H38.928V187.52H45.312ZM54.1245 187.52V188.752H47.7405V187.52H54.1245ZM62.937 187.52V188.752H56.553V187.52H62.937ZM71.7495 187.52V188.752H65.3655V187.52H71.7495ZM80.562 187.52V188.752H74.178V187.52H80.562ZM89.3745 187.52V188.752H82.9905V187.52H89.3745ZM98.187 187.52V188.752H91.803V187.52H98.187ZM107 187.52V188.752H100.616V187.52H107ZM115.812 187.52V188.752H109.428V187.52H115.812ZM124.625 187.52V188.752H118.241V187.52H124.625ZM133.437 187.52V188.752H127.053V187.52H133.437ZM142.25 187.52V188.752H135.866V187.52H142.25ZM151.062 187.52V188.752H144.678V187.52H151.062ZM159.875 187.52V188.752H153.491V187.52H159.875ZM168.687 187.52V188.752H162.303V187.52H168.687ZM177.5 187.52V188.752H171.116V187.52H177.5ZM186.312 187.52V188.752H179.928V187.52H186.312ZM195.125 187.52V188.752H188.741V187.52H195.125ZM203.937 187.52V188.752H197.553V187.52H203.937ZM212.75 187.52V188.752H206.366V187.52H212.75ZM221.562 187.52V188.752H215.178V187.52H221.562ZM230.375 187.52V188.752H223.991V187.52H230.375Z" fill="black"/>
<path d="M131.508 56.3195C124.571 56.3422 119.392 58.5703 116.476 61.3281L117.442 62.3437C122.299 57.7625 135.188 54.25 152.938 63.8125L153.61 62.5781C145.11 58 137.625 56.2992 131.508 56.3195ZM123.938 62.9453C119.564 64.6562 117.597 68.0703 116.388 70.3203L117.627 70.9922C118.817 68.7656 120.528 65.789 124.453 64.2578C128.375 62.7265 134.649 62.625 145.008 66.6562L145.524 65.3437C138.36 62.7969 130.914 60.2812 123.938 62.9453ZM144.281 68.8828C130.414 76.0312 123.969 73.9765 116.746 72.1172L116.396 73.4844C117.642 73.8047 118.891 74.1328 120.176 74.414C118.663 75.4765 117.924 75.7578 117.036 76.3359C119.04 76.25 120.331 75.6172 121.701 75.039C120.718 76.25 119.861 77.4609 118.107 78.7422C120.218 78.1797 122.251 77.5547 123.781 76.4922C122.807 78.0547 121.616 79.5781 120.274 81.0703C122.574 80.3515 124.313 78.6172 126.117 76.8984C126.094 78.3906 125.399 79.8828 124.906 81.375C126.547 79.8672 127.25 78.7812 128.242 77.2734C128.149 79.5547 128.789 81.3984 129.352 83.6797C129.703 81.5 130.094 79.3125 130.094 77.2031C131.266 79.1562 132.836 80.9375 134.813 82.5234C133.758 80.6875 132.703 78.8594 132.149 76.9531C134.164 78.8672 136.266 80.7265 138.789 82.2812C137.11 80.4453 135.516 78.5859 134.485 76.6015C136.297 78.3047 138.117 80.0078 141.149 80.9922C138.953 79.4844 137.547 77.7734 136.516 75.9687C138.602 77.7187 140.938 79.2734 143.758 80.4375C141.266 78.7187 139.86 77 138.899 75.2812C140.961 76.9844 143.321 78.1094 145.375 79.2344C143.75 77.7344 141.977 76.2969 141.125 74.5156C142.805 75.9765 144.789 76.6094 146.75 77.289C144.93 76.0781 143.883 75.2578 142.797 73.8281C144.531 74.7031 145.977 75.0469 148.063 75.5625C146.703 74.8047 145.258 73.7656 144.328 72.8672C146.414 73.3906 148.703 73.4765 150.86 73.4453C148.883 72.9297 146.735 72.4765 145.594 71.6875C150.156 71.7265 150.438 71.3281 152.352 70.375C148.305 70.6719 145.735 70.6015 144.281 68.8828Z" fill="white"/>
</svg>
