<svg width="270" height="230" viewBox="0 0 270 230" fill="none" xmlns="http://www.w3.org/2000/svg">
<path opacity="0.3" d="M175 70C175 92.0914 157.091 110 135 110C112.909 110 95 92.0914 95 70C95 47.9086 112.909 30 135 30C157.091 30 175 47.9086 175 70ZM105.907 70C105.907 86.0675 118.932 99.0929 135 99.0929C151.068 99.0929 164.093 86.0675 164.093 70C164.093 53.9325 151.068 40.9071 135 40.9071C118.932 40.9071 105.907 53.9325 105.907 70Z" fill="#E60029"/>
<circle cx="135" cy="70" r="29" fill="#EB5D76"/>
<path d="M115.659 137.727H121.17L126.477 147.75H126.705L132.011 137.727H137.523L129.034 152.773V161H124.148V152.773L115.659 137.727ZM145.629 161.341C143.842 161.341 142.304 160.962 141.016 160.205C139.735 159.439 138.751 158.379 138.061 157.023C137.379 155.667 137.039 154.106 137.039 152.341C137.039 150.553 137.383 148.985 138.073 147.636C138.77 146.28 139.758 145.223 141.039 144.466C142.319 143.701 143.842 143.318 145.607 143.318C147.129 143.318 148.463 143.595 149.607 144.148C150.751 144.701 151.656 145.477 152.323 146.477C152.989 147.477 153.357 148.652 153.425 150H148.857C148.728 149.129 148.387 148.428 147.834 147.898C147.289 147.36 146.573 147.091 145.686 147.091C144.936 147.091 144.281 147.295 143.72 147.705C143.167 148.106 142.735 148.693 142.425 149.466C142.114 150.239 141.959 151.174 141.959 152.273C141.959 153.386 142.11 154.333 142.414 155.114C142.724 155.894 143.16 156.489 143.72 156.898C144.281 157.307 144.936 157.511 145.686 157.511C146.239 157.511 146.735 157.398 147.175 157.17C147.622 156.943 147.989 156.614 148.277 156.182C148.573 155.742 148.766 155.216 148.857 154.602H153.425C153.349 155.936 152.985 157.11 152.334 158.125C151.69 159.133 150.8 159.92 149.664 160.489C148.527 161.057 147.182 161.341 145.629 161.341Z" fill="black"/>
<path d="M58.5933 187.52V188.752H52.2093V187.52H58.5933ZM67.4058 187.52V188.752H61.0218V187.52H67.4058ZM76.2183 187.52V188.752H69.8343V187.52H76.2183ZM85.0308 187.52V188.752H78.6468V187.52H85.0308ZM93.8433 187.52V188.752H87.4593V187.52H93.8433ZM102.656 187.52V188.752H96.2718V187.52H102.656ZM111.468 187.52V188.752H105.084V187.52H111.468ZM120.281 187.52V188.752H113.897V187.52H120.281ZM129.093 187.52V188.752H122.709V187.52H129.093ZM137.906 187.52V188.752H131.522V187.52H137.906ZM146.718 187.52V188.752H140.334V187.52H146.718ZM155.531 187.52V188.752H149.147V187.52H155.531ZM164.343 187.52V188.752H157.959V187.52H164.343ZM173.156 187.52V188.752H166.772V187.52H173.156ZM181.968 187.52V188.752H175.584V187.52H181.968ZM190.781 187.52V188.752H184.397V187.52H190.781ZM199.593 187.52V188.752H193.209V187.52H199.593ZM208.406 187.52V188.752H202.022V187.52H208.406ZM217.218 187.52V188.752H210.834V187.52H217.218Z" fill="black"/>
<g clip-path="url(#clip0_106_1378)">
<path d="M134 53C130.022 53 126.206 54.5804 123.393 57.3934C120.58 60.2064 119 64.0218 119 68V78C119 79.3261 119.527 80.5979 120.464 81.5355C121.402 82.4732 122.674 83 124 83H126.303C126.922 83 127.529 82.8275 128.056 82.5019C128.583 82.1763 129.008 81.7105 129.285 81.1567L129.577 80.5733C129.038 80.197 128.533 79.7731 128.07 79.3067C126.238 77.4633 124.833 74.7567 124.833 71.3333C124.833 70.1083 125.04 68.89 125.415 67.7383C125.582 67.2267 126.043 67.1667 126.5 67.1667C129.317 67.1667 131.808 65.7683 133.318 63.625C133.395 63.5156 133.497 63.4264 133.616 63.3648C133.735 63.3032 133.866 63.271 134 63.271C134.134 63.271 134.265 63.3032 134.384 63.3648C134.503 63.4264 134.605 63.5156 134.682 63.625C135.45 64.7198 136.471 65.6133 137.658 66.2298C138.845 66.8464 140.163 67.1677 141.5 67.1667C141.957 67.1667 142.42 67.2267 142.585 67.7383C142.966 68.8988 143.162 70.1119 143.167 71.3333C143.167 74.7583 141.762 77.4633 139.93 79.3067C139.455 79.785 138.947 80.2083 138.423 80.5733L138.715 81.1567C138.992 81.7105 139.417 82.1763 139.944 82.5019C140.471 82.8275 141.078 83 141.697 83H144C145.326 83 146.598 82.4732 147.536 81.5355C148.473 80.5979 149 79.3261 149 78V68C149 64.0218 147.42 60.2064 144.607 57.3934C141.794 54.5804 137.978 53 134 53Z" fill="white"/>
</g>
<defs>
<clipPath id="clip0_106_1378">
<rect width="40" height="40" fill="white" transform="translate(114 48)"/>
</clipPath>
</defs>
</svg>
