<svg width="17" height="17" viewBox="0 0 17 17" fill="none" xmlns="http://www.w3.org/2000/svg">
<path d="M8.5 1.37598C4.35786 1.37598 1 4.68274 1 8.76184C1 12.8409 4.35786 16.1477 8.5 16.1477C12.6421 16.1477 16 12.8409 16 8.76184C16 4.68274 12.6421 1.37598 8.5 1.37598Z" stroke="white" stroke-width="1.5" stroke-linecap="round" stroke-linejoin="round"/>
<path d="M2.70312 13.4495C2.70312 13.4495 4.37489 11.3467 8.49988 11.3467C12.6249 11.3467 14.2967 13.4495 14.2967 13.4495" stroke="white" stroke-width="1.5" stroke-linecap="round" stroke-linejoin="round"/>
<path d="M8.5 8.76208C9.74268 8.76208 10.75 7.77009 10.75 6.54632C10.75 5.3226 9.74268 4.33057 8.5 4.33057C7.25732 4.33057 6.25 5.3226 6.25 6.54632C6.25 7.77009 7.25732 8.76208 8.5 8.76208Z" stroke="white" stroke-width="1.5" stroke-linecap="round" stroke-linejoin="round"/>
</svg>
