<svg width="40" height="40" viewBox="0 0 40 40" fill="none" xmlns="http://www.w3.org/2000/svg">
<g clip-path="url(#clip0_106_1703)">
<path d="M20 5C16.0218 5 12.2064 6.58035 9.3934 9.3934C6.58035 12.2064 5 16.0218 5 20V30C5 31.3261 5.52678 32.5979 6.46447 33.5355C7.40215 34.4732 8.67392 35 10 35H12.3033C12.9225 35 13.5294 34.8275 14.056 34.5019C14.5827 34.1763 15.0082 33.7105 15.285 33.1567L15.5767 32.5733C15.0376 32.197 14.5334 31.7731 14.07 31.3067C12.2383 29.4633 10.8333 26.7567 10.8333 23.3333C10.8333 22.1083 11.04 20.89 11.415 19.7383C11.5817 19.2267 12.0433 19.1667 12.5 19.1667C15.3167 19.1667 17.8083 17.7683 19.3183 15.625C19.3952 15.5156 19.4973 15.4264 19.616 15.3648C19.7346 15.3032 19.8663 15.271 20 15.271C20.1337 15.271 20.2654 15.3032 20.384 15.3648C20.5027 15.4264 20.6048 15.5156 20.6817 15.625C21.4499 16.7198 22.4707 17.6133 23.6576 18.2298C24.8445 18.8464 26.1625 19.1677 27.5 19.1667C27.9567 19.1667 28.42 19.2267 28.585 19.7383C28.9659 20.8988 29.1622 22.1119 29.1667 23.3333C29.1667 26.7583 27.7617 29.4633 25.93 31.3067C25.455 31.785 24.9467 32.2083 24.4233 32.5733L24.715 33.1567C24.9918 33.7105 25.4173 34.1763 25.944 34.5019C26.4706 34.8275 27.0775 35 27.6967 35H30C31.3261 35 32.5979 34.4732 33.5355 33.5355C34.4732 32.5979 35 31.3261 35 30V20C35 16.0218 33.4196 12.2064 30.6066 9.3934C27.7936 6.58035 23.9782 5 20 5Z" fill="white"/>
</g>
<defs>
<clipPath id="clip0_106_1703">
<rect width="40" height="40" fill="white"/>
</clipPath>
</defs>
</svg>
