<svg width="40" height="40" viewBox="0 0 40 40" fill="none" xmlns="http://www.w3.org/2000/svg">
<path d="M38.0425 1.25H33.0525C32.9002 1.25004 32.7531 1.3057 32.639 1.40652C32.5248 1.50733 32.4514 1.64637 32.4325 1.7975L31.9637 5.5475C31.9528 5.63532 31.9606 5.72446 31.9866 5.80904C32.0127 5.89361 32.0564 5.97169 32.1149 6.0381C32.1734 6.10451 32.2453 6.15774 32.3259 6.19427C32.4066 6.2308 32.494 6.2498 32.5825 6.25H34.25L33.5663 10.0075C33.3668 10.0151 33.1694 10.0509 32.98 10.1137C32.8129 10.1682 32.6536 10.2443 32.5062 10.34C32.4825 10.3563 32.4625 10.3737 32.44 10.3912C32.3114 10.4837 32.1947 10.5916 32.0925 10.7125C32.0762 10.7312 32.0588 10.7475 32.0425 10.7675C31.9397 10.9018 31.8572 11.0505 31.7975 11.2088C31.7937 11.2238 31.7812 11.235 31.7762 11.25H31.785C31.7162 11.4314 31.6798 11.6235 31.6775 11.8175L31.6788 11.875V13.6337C31.6788 13.9487 31.5 14.2638 31.33 14.4938C31.1975 14.6738 31.25 14.94 31.47 14.9738C32.9638 15.1975 35.6312 13.9987 35.6312 11.8187C35.6312 11.6187 35.5875 11.4313 35.5238 11.2513H35.5325C35.5275 11.2363 35.515 11.225 35.5087 11.21C35.4485 11.052 35.366 10.9034 35.2638 10.7687C35.2488 10.7487 35.23 10.7325 35.215 10.7138C35.1126 10.5925 34.9955 10.4846 34.8662 10.3925C34.8437 10.3763 34.8238 10.3575 34.8 10.3425L34.78 10.3275L35.5212 6.25H37.0213C37.3259 6.24991 37.62 6.1386 37.8483 5.93697C38.0766 5.73533 38.2235 5.45727 38.2612 5.155L38.6613 1.9525C38.6722 1.86468 38.6644 1.77554 38.6384 1.69096C38.6123 1.60639 38.5686 1.52831 38.5101 1.4619C38.4516 1.39549 38.3797 1.34226 38.2991 1.30573C38.2184 1.2692 38.131 1.2502 38.0425 1.25ZM34.83 2.61375L34.205 5.11375C34.1748 5.23442 34.098 5.33817 33.9913 5.40217C33.8846 5.46616 33.7569 5.48517 33.6363 5.455C33.5156 5.42483 33.4118 5.34796 33.3478 5.2413C33.2838 5.13464 33.2648 5.00692 33.295 4.88625L33.92 2.38625C33.9502 2.26558 34.027 2.16183 34.1337 2.09783C34.2404 2.03384 34.3681 2.01483 34.4887 2.045C34.6094 2.07517 34.7132 2.15204 34.7772 2.2587C34.8412 2.36536 34.8602 2.49308 34.83 2.61375ZM34.4175 20.3575C34.4175 19.3187 34.02 18.2775 33.2275 17.485C32.9341 17.1925 32.5368 17.0282 32.1225 17.0282C31.7082 17.0282 31.3109 17.1925 31.0175 17.485L30.7575 17.745C30.5423 16.8803 30.098 16.0896 29.4712 15.4562C29.3575 15.3425 29.2263 15.2575 29.1038 15.1562C29.105 15.1225 29.1138 15.0888 29.1138 15.0538C29.1138 14.015 28.7163 12.9737 27.925 12.1812C27.6316 11.8887 27.2343 11.7245 26.82 11.7245C26.4057 11.7245 26.0084 11.8887 25.715 12.1812L23.6862 14.2087C23.516 13.5536 23.2136 12.9402 22.7975 12.4063C23.4453 11.6724 23.8054 10.7288 23.8112 9.75C23.8112 8.71125 23.4138 7.67 22.6213 6.8775C22.3279 6.585 21.9305 6.42074 21.5162 6.42074C21.102 6.42074 20.7046 6.585 20.4113 6.8775L15.9925 11.2975L2.5 24.7487V36.875C2.5 37.0408 2.56585 37.1997 2.68306 37.3169C2.80027 37.4342 2.95924 37.5 3.125 37.5H25.1038L33.0063 29.5975C33.471 29.1334 33.8396 28.5821 34.091 27.9753C34.3424 27.3685 34.4716 26.7181 34.4712 26.0613C34.4639 24.9548 34.0888 23.8823 33.405 23.0125C34.0688 22.2512 34.4175 21.3075 34.4175 20.3575ZM5 25.7838L15.7763 15.0087C15.8463 15.0987 15.91 15.1912 15.9925 15.2737C16.2535 15.5352 16.5635 15.7425 16.9047 15.8839C17.246 16.0253 17.6119 16.0978 17.9813 16.0975C18.7 16.0975 19.4212 15.8225 19.97 15.2737L21.0262 14.2175C21.245 14.6 21.3637 15.0225 21.365 15.4537C21.3659 15.7822 21.3016 16.1075 21.1759 16.4109C21.0501 16.7143 20.8654 16.9897 20.6325 17.2213L5 32.855V25.7838ZM6.39 35L21.0775 20.3125C21.1475 20.4025 21.2112 20.495 21.2937 20.5775C21.5547 20.8389 21.8647 21.0463 22.206 21.1876C22.5473 21.329 22.9131 21.4016 23.2825 21.4013C24.0012 21.4013 24.7237 21.1262 25.2712 20.5775L27.9225 17.9262C27.9837 17.865 28.0262 17.7938 28.0825 17.73C28.3659 18.2048 28.4824 18.7608 28.4133 19.3094C28.3442 19.858 28.0935 20.3678 27.7012 20.7575L13.4613 35H6.39ZM31.2387 27.83L24.0687 35H16.9975L26.3825 25.615C26.4525 25.705 26.5175 25.7987 26.6 25.8812C26.861 26.1427 27.171 26.35 27.5122 26.4914C27.8535 26.6328 28.2194 26.7053 28.5888 26.705C29.3075 26.705 30.0287 26.43 30.5775 25.8812L31.6337 24.825C31.8525 25.2075 31.9712 25.63 31.9725 26.0613C31.9728 26.3899 31.9081 26.7153 31.7822 27.0189C31.6562 27.3224 31.4716 27.5981 31.2387 27.83Z" fill="white"/>
</svg>
