<svg width="20" height="16" viewBox="0 0 20 16" fill="none" xmlns="http://www.w3.org/2000/svg">
<g id="shopping_cart" clip-path="url(#clip0_205_90)">
<path id="Vector" d="M12.7031 8.65194C13.2879 8.65194 13.8026 8.38455 14.0677 7.9802L16.8593 3.74759C17.1478 3.31716 16.7735 2.78238 16.1809 2.78238H4.64027L3.90728 1.47803H1.35742V2.78238H2.91697L5.72415 7.73238L4.67146 9.32368C4.10222 10.1976 4.85081 11.2606 6.03606 11.2606H15.3933V9.95629H6.03606L6.89381 8.65194H12.7031ZM5.38105 4.08672H14.8553L12.7031 7.34759H7.22911L5.38105 4.08672ZM6.03606 11.9128C5.17831 11.9128 4.48431 12.4998 4.48431 13.2172C4.48431 13.9345 5.17831 14.5215 6.03606 14.5215C6.89381 14.5215 7.59561 13.9345 7.59561 13.2172C7.59561 12.4998 6.89381 11.9128 6.03606 11.9128ZM13.8338 11.9128C12.976 11.9128 12.282 12.4998 12.282 13.2172C12.282 13.9345 12.976 14.5215 13.8338 14.5215C14.6915 14.5215 15.3933 13.9345 15.3933 13.2172C15.3933 12.4998 14.6915 11.9128 13.8338 11.9128Z" fill="white"/>
</g>
<defs>
<clipPath id="clip0_205_90">
<rect width="18.7146" height="15.6522" fill="white" transform="translate(0.577637 0.173828)"/>
</clipPath>
</defs>
</svg>
