<svg width="24" height="38" viewBox="0 0 24 38" fill="none" xmlns="http://www.w3.org/2000/svg">
<path d="M7.00016 8.99992H15.3335M7.00016 8.99992V13.1666H15.3335V8.99992M7.00016 8.99992V6.49992C7.00016 3.99992 9.50016 2.33325 12.0002 2.33325H21.1668C21.1668 2.33325 15.3335 3.99992 15.3335 7.33325V8.99992M2.8335 14.8333C2.8335 14.3912 3.00909 13.9673 3.32165 13.6547C3.63421 13.3422 4.05814 13.1666 4.50016 13.1666H17.8335C18.2755 13.1666 18.6994 13.3422 19.012 13.6547C19.3246 13.9673 19.5002 14.3912 19.5002 14.8333V30.6666C19.5002 30.6666 19.5002 35.6666 14.5002 35.6666H7.8335C2.8335 35.6666 2.8335 30.6666 2.8335 30.6666V14.8333Z" stroke="white" stroke-width="4" stroke-linecap="round" stroke-linejoin="round"/>
</svg>
